<svg width="41" height="40" viewBox="0 0 41 40" fill="none" xmlns="http://www.w3.org/2000/svg">
<path d="M7.19434 0.244141H33.3057C35.0811 0.244169 36.7836 0.949652 38.0391 2.20508C39.2945 3.4605 40 5.16304 40 6.93848V33.0498C40 34.8252 39.2945 36.5278 38.0391 37.7832C36.7836 39.0386 35.0811 39.7441 33.3057 39.7441H7.19434C5.4189 39.7441 3.71636 39.0386 2.46094 37.7832C1.20551 36.5278 0.500028 34.8252 0.5 33.0498V6.93848C0.500029 5.16304 1.20551 3.4605 2.46094 2.20508C3.71636 0.949652 5.4189 0.244169 7.19434 0.244141ZM7.19434 2.52148C6.023 2.52151 4.89955 2.98717 4.07129 3.81543C3.24303 4.64369 2.77737 5.76714 2.77734 6.93848V33.0498C2.77737 34.2211 3.24303 35.3446 4.07129 36.1729C4.89955 37.0011 6.023 37.4668 7.19434 37.4668H33.3057C34.477 37.4668 35.6004 37.0011 36.4287 36.1729C37.257 35.3446 37.7226 34.2211 37.7227 33.0498V6.93848C37.7226 5.76714 37.257 4.64369 36.4287 3.81543C35.6004 2.98717 34.477 2.52151 33.3057 2.52148H7.19434ZM11.917 24.6885C13.1767 24.6886 14.3847 25.1894 15.2754 26.0801C16.1661 26.9708 16.667 28.1788 16.667 29.4385C16.667 30.6982 16.1661 31.9061 15.2754 32.7969C14.3847 33.6876 13.1767 34.1884 11.917 34.1885C10.6572 34.1885 9.44841 33.6877 8.55762 32.7969C7.66706 31.9061 7.16699 30.6981 7.16699 29.4385C7.16702 28.1789 7.66701 26.9708 8.55762 26.0801C9.44841 25.1893 10.6572 24.6885 11.917 24.6885ZM11.917 26.9668C11.2614 26.9668 10.6326 27.2269 10.1689 27.6904C9.70534 28.154 9.44437 28.7828 9.44434 29.4385C9.44434 30.0941 9.70531 30.7229 10.1689 31.1865C10.6326 31.6501 11.2614 31.9111 11.917 31.9111C12.5725 31.911 13.2015 31.6501 13.665 31.1865C14.1285 30.7229 14.3887 30.094 14.3887 29.4385C14.3886 28.7829 14.1286 28.154 13.665 27.6904C13.2015 27.2269 12.5725 26.9669 11.917 26.9668ZM20.5273 28.0215H32.1943C32.4964 28.0215 32.7864 28.1419 33 28.3555C33.2135 28.569 33.333 28.8591 33.333 29.1611C33.3329 29.4629 33.2133 29.7523 33 29.9658C32.7864 30.1794 32.4964 30.2998 32.1943 30.2998H20.5273C20.2254 30.2997 19.9361 30.1793 19.7227 29.9658C19.5092 29.7523 19.3888 29.463 19.3887 29.1611C19.3887 28.8591 19.5091 28.5691 19.7227 28.3555C19.9361 28.1421 20.2255 28.0216 20.5273 28.0215ZM11.917 12.4668C13.1766 12.4669 14.3847 12.9668 15.2754 13.8574C16.1662 14.7482 16.667 15.957 16.667 17.2168C16.6669 17.8404 16.5433 18.458 16.3047 19.0342C16.066 19.6104 15.7164 20.1342 15.2754 20.5752C14.8343 21.0162 14.3106 21.3658 13.7344 21.6045C13.1582 21.8432 12.5407 21.9668 11.917 21.9668C11.2932 21.9668 10.6749 21.8432 10.0986 21.6045C9.52247 21.3658 8.99861 21.0162 8.55762 20.5752C8.11661 20.1342 7.76701 19.6104 7.52832 19.0342C7.28967 18.458 7.16705 17.8404 7.16699 17.2168C7.16699 15.957 7.66685 14.7482 8.55762 13.8574C9.44841 12.9666 10.6572 12.4668 11.917 12.4668ZM11.917 14.7441C11.2615 14.7441 10.6325 15.0044 10.1689 15.4678C9.70531 15.9314 9.44434 16.5611 9.44434 17.2168C9.44445 17.8723 9.70542 18.5013 10.1689 18.9648C10.6325 19.4282 11.2615 19.6885 11.917 19.6885C12.5725 19.6884 13.2015 19.4284 13.665 18.9648C14.1286 18.5013 14.3886 17.8723 14.3887 17.2168C14.3887 16.5611 14.1287 15.9314 13.665 15.4678C13.2015 15.0043 12.5725 14.7442 11.917 14.7441ZM20.5273 16.3555H32.1943C32.4964 16.3555 32.7864 16.4749 33 16.6885C33.2136 16.9021 33.333 17.1921 33.333 17.4941C33.333 17.7962 33.2136 18.0862 33 18.2998C32.7864 18.5134 32.4964 18.6328 32.1943 18.6328H20.5273C19.8989 18.6326 19.3887 18.1226 19.3887 17.4941C19.3887 16.8657 19.8989 16.3557 20.5273 16.3555ZM8.30566 6.91113H32.1943C32.4964 6.91113 32.7864 7.03056 33 7.24414C33.2136 7.45772 33.333 7.74775 33.333 8.0498C33.333 8.35182 33.2136 8.64191 33 8.85547C32.7864 9.06898 32.4963 9.18848 32.1943 9.18848H8.30566C8.00366 9.18848 7.71357 9.06898 7.5 8.85547C7.28644 8.64191 7.16702 8.35182 7.16699 8.0498C7.16699 7.74775 7.28642 7.45772 7.5 7.24414C7.71358 7.03056 8.00361 6.91113 8.30566 6.91113Z" fill="#D81680" stroke="white" stroke-width="0.5"/>
</svg>
