<svg width="11" height="7" viewBox="0 0 11 7" fill="none" xmlns="http://www.w3.org/2000/svg">
<path d="M10.8538 1.52981L5.85378 6.52981C5.80735 6.5763 5.7522 6.61318 5.6915 6.63834C5.63081 6.6635 5.56574 6.67645 5.50003 6.67645C5.43433 6.67645 5.36926 6.6635 5.30856 6.63834C5.24786 6.61318 5.19272 6.5763 5.14628 6.52981L0.146284 1.52981C0.0524635 1.43599 -0.000244141 1.30874 -0.000244141 1.17606C-0.000244141 1.04338 0.0524635 0.916129 0.146284 0.822309C0.240104 0.728489 0.367352 0.675781 0.500034 0.675781C0.632716 0.675781 0.759964 0.728489 0.853784 0.822309L5.50003 5.46918L10.1463 0.822309C10.1927 0.775854 10.2479 0.739004 10.3086 0.713862C10.3693 0.688721 10.4343 0.675781 10.5 0.675781C10.5657 0.675781 10.6308 0.688721 10.6915 0.713862C10.7522 0.739004 10.8073 0.775854 10.8538 0.822309C10.9002 0.868764 10.9371 0.923915 10.9622 0.984611C10.9874 1.04531 11.0003 1.11036 11.0003 1.17606C11.0003 1.24176 10.9874 1.30681 10.9622 1.36751C10.9371 1.4282 10.9002 1.48335 10.8538 1.52981Z" fill="white"/>
</svg>
