<svg width="20" height="21" viewBox="0 0 20 21" fill="none" xmlns="http://www.w3.org/2000/svg">
<path fill-rule="evenodd" clip-rule="evenodd" d="M8.82819 1.81347C4.91858 2.335 1.81963 5.45367 1.3099 9.37969C1.2324 9.97652 1.23307 11.0265 1.31127 11.6294C1.5019 13.0987 2.11678 14.6072 2.99272 15.7546C3.35588 16.2304 3.451 16.3211 3.58674 16.3211C3.75967 16.3211 3.82405 16.2861 3.89139 16.1559C3.97604 15.9922 3.93905 15.8923 3.66709 15.5501C3.33674 15.1344 3.08471 14.7531 2.85022 14.3141L2.64936 13.9382H4.00307C4.79494 13.9382 5.38588 13.9227 5.42698 13.9007C5.46557 13.88 5.51928 13.8097 5.54631 13.7444C5.60385 13.6055 5.54592 13.4145 5.42698 13.3508C5.38553 13.3286 4.74744 13.3132 3.87096 13.3132H2.38514L2.26768 12.9324C2.00248 12.0724 1.90725 11.4301 1.90725 10.5007C1.90725 9.57141 2.00248 8.92906 2.26768 8.0691L2.38514 7.68824H4.26076H6.13643L6.11248 7.83473C6.09932 7.91531 6.08076 8.02516 6.07127 8.07887C5.95166 8.75496 5.89748 11.013 5.97799 11.9656C6.13506 13.8234 6.4903 15.348 7.06557 16.6329C7.33131 17.2265 7.65951 17.759 8.07268 18.2669L8.17795 18.3963L8.06362 18.3703C8.00073 18.3559 7.71858 18.2684 7.43658 18.1757C6.52873 17.8772 5.75666 17.464 5.00721 16.8754C4.68619 16.6233 4.60619 16.5783 4.4783 16.5776C4.29225 16.5765 4.17975 16.6966 4.17975 16.8963C4.17975 17.058 4.30858 17.1893 4.86526 17.5948C5.83412 18.3005 7.00803 18.8218 8.18432 19.0689C8.82795 19.204 9.30291 19.2507 10.034 19.2507C13.049 19.2507 15.8198 17.7094 17.4423 15.1296C18.0728 14.1271 18.5331 12.8373 18.6878 11.6397C18.7582 11.0943 18.7691 10.0717 18.7101 9.54371C18.5413 8.03238 17.9531 6.52492 17.0672 5.33285C16.6569 4.78074 16.5563 4.68043 16.4134 4.68043C16.2405 4.68043 16.1761 4.71535 16.1087 4.84562C16.0224 5.01265 16.059 5.10223 16.3835 5.51726C16.6919 5.9118 17.0249 6.4293 17.223 6.82164L17.3449 7.06324H15.9942C15.2041 7.06324 14.6142 7.07883 14.5731 7.10082C14.5346 7.12148 14.4808 7.1918 14.4538 7.25707C14.3963 7.39598 14.4542 7.58699 14.5731 7.65066C14.6146 7.67285 15.2527 7.68824 16.1292 7.68824H17.615L17.7324 8.0691C17.9971 8.92726 18.0919 9.56836 18.0919 10.5007C18.0919 11.4331 17.9971 12.0742 17.7324 12.9324L17.615 13.3132H15.7369H13.8588L13.8805 13.2254C13.8924 13.177 13.9334 12.8738 13.9717 12.5515C14.0597 11.8109 14.0722 9.38039 13.9917 8.64527C13.8029 6.91996 13.466 5.55734 12.9341 4.36793C12.6691 3.77551 12.3407 3.24262 11.9274 2.73457L11.8222 2.60515L11.9365 2.63121C11.9994 2.64555 12.2815 2.73312 12.5635 2.82582C13.465 3.12223 14.2387 3.53508 14.9835 4.11734C15.3986 4.4418 15.4881 4.47844 15.6552 4.39207C15.7855 4.32472 15.8204 4.26035 15.8204 4.08742C15.8204 3.95168 15.7297 3.85656 15.254 3.4934C14.1065 2.61746 12.598 2.00258 11.1287 1.81195C10.5474 1.73652 9.3994 1.7373 8.82819 1.81347ZM9.74983 2.41703C9.28381 2.49508 8.73682 2.90539 8.3126 3.49523C7.72561 4.31137 7.29299 5.39984 6.93721 6.95582L6.91264 7.06324H9.64491H12.3772L12.4581 7.16617C12.5678 7.30547 12.5619 7.47375 12.4432 7.59234L12.3474 7.68824H9.57651H6.80565L6.78264 7.81519C6.71537 8.18672 6.63674 9.00078 6.601 9.69594C6.55979 10.4969 6.59256 11.6226 6.68088 12.4381C6.81869 13.7105 7.13436 15.0497 7.52678 16.0268C8.49842 18.4461 9.92811 19.2398 11.1967 18.0643C12.0068 17.3137 12.6153 16.0033 13.0629 14.0457L13.0875 13.9382H10.3701H7.65276L7.5569 13.8423C7.43826 13.7238 7.43237 13.5555 7.54198 13.4162L7.62291 13.3132H10.4087H13.1945L13.2175 13.1863C13.3712 12.3369 13.451 10.8173 13.3989 9.72762C13.2783 7.20308 12.7093 5.03508 11.8108 3.67617C11.1835 2.72734 10.4764 2.29539 9.74983 2.41703ZM7.65631 2.7416C5.55498 3.39695 3.85166 4.80199 2.83158 6.72144L2.6499 7.06324H4.4449H6.2399L6.2878 6.8191C6.49483 5.76406 6.97459 4.42445 7.41053 3.68433C7.56924 3.41484 7.86869 2.98519 8.07076 2.73707C8.19948 2.57902 8.17686 2.57926 7.65631 2.7416ZM13.7324 14.0847C13.6718 14.4216 13.4983 15.0833 13.352 15.5358C12.9948 16.6398 12.5476 17.5118 11.9984 18.1744C11.9103 18.2807 11.8453 18.3746 11.8538 18.3831C11.8813 18.4107 12.574 18.1971 12.974 18.0378C14.7776 17.3192 16.2584 15.9926 17.1685 14.28L17.3502 13.9382H15.5545H13.7588L13.7324 14.0847Z" fill="#040404"/>
</svg>
