<svg width="170" height="95" viewBox="0 0 170 95" fill="none" xmlns="http://www.w3.org/2000/svg">
<path d="M73.929 33.4149C66.852 36.3215 61.7441 41.2261 58.2631 47.924C51.9891 39.1042 51.0004 23.0328 60.7125 11.4286C72.3963 -2.53134 92.1964 -3.37155 104.907 7.10173C118.688 18.4562 119.097 36.8234 111.902 47.8248C102.935 33.4094 90.5311 28.0175 73.929 33.4149ZM73.3092 4.28604C69.225 6.08153 65.6084 8.55853 62.7129 11.9626C56.7387 18.9863 54.4093 27.113 55.7127 36.2466C56.0993 38.956 56.8694 41.5684 58.071 43.8883C60.0909 41.6544 62.0666 39.5011 63.99 37.3018C64.228 37.0297 64.2726 36.5114 64.2623 36.1109C64.1972 33.566 63.6748 30.9543 64.0752 28.4903C65.4282 20.1646 70.2013 14.4866 78.1235 11.4822C78.6203 11.2938 79.0848 10.7319 79.3329 10.2293C80.039 8.79869 80.5309 7.2578 81.2862 5.85706C82.0061 4.52188 82.9515 3.30854 83.8651 1.94088C80.1769 2.0185 76.7867 2.86594 73.3092 4.28604ZM113.625 24.0001C109.701 8.8705 95.3226 1.57561 86.5862 2.14468C87.8345 4.58349 89.2778 7.11584 90.4195 9.7778C90.8671 10.8213 91.417 11.2564 92.3728 11.7401C94.5989 12.8665 96.9272 13.9859 98.7911 15.5982C105.039 21.0027 107.053 27.9807 105.725 36.0374C105.661 36.4259 105.692 36.9796 105.922 37.2439C107.864 39.4722 109.863 41.6509 111.917 43.9251C114.765 37.6021 115.337 31.0199 113.625 24.0001ZM80.7273 29.6575C81.3917 29.5768 82.0562 29.496 82.4916 29.4431C81.4039 26.9094 80.0211 24.4529 79.3092 21.815C78.5983 19.1805 78.5589 16.3645 78.2255 13.6304C70.4654 14.9553 63.1144 28.1955 66.2026 35.2952C68.4568 34.1123 70.6351 32.7183 72.9977 31.7993C75.4033 30.8636 77.9904 30.3953 80.7273 29.6575ZM103.865 27.7124C102.532 20.1923 95.8349 14.3212 91.3919 13.6885C91.9039 19.4186 90.6048 24.6728 87.0161 29.4194C93.3037 29.8883 98.7699 31.9799 103.716 35.4946C104.402 33.7503 104.467 30.4462 103.865 27.7124ZM86.473 5.7332C86.0164 5.12026 85.5597 4.50732 85.0891 3.87557C78.5276 10.5871 79.1544 23.0522 85.0341 28.5798C90.0141 23.5846 91.5011 13.3037 86.473 5.7332Z" fill="#D81680"/>
<path d="M87.4186 39.8694C95.4883 40.6018 103.044 46.8981 105.217 54.6983C105.327 55.0916 105.123 55.7933 104.815 56.0506C93.6361 65.3775 76.4002 65.4373 65.2783 56.1867C64.9287 55.8959 64.6401 55.1548 64.7522 54.7399C67.3253 45.2246 77.5849 38.4692 87.4186 39.8694ZM98.6088 47.817C92.7824 52.9158 81.09 55.7816 70.7497 47.4731C69.5635 49.4502 68.4314 51.4038 67.2309 53.3143C66.4551 54.5491 66.9579 55.1955 68.0206 55.933C78.0748 62.9105 91.5496 62.9842 101.707 56.0624C103.418 54.8963 103.59 54.7972 102.609 53.092C101.519 51.1974 100.073 49.5076 98.6088 47.817ZM78.1335 49.6163C85.7752 52.6853 94.2289 49.7013 97.3459 46.1084C89.6668 39.49 78.4412 40.7062 72.6376 46.2665C74.1199 47.8334 76.0349 48.6802 78.1335 49.6163Z" fill="#D81680"/>
<path d="M115.108 75.9393C115.069 74.9546 115.096 74.1094 116.08 73.7638C117.119 73.3992 117.677 74.0778 118.229 74.8021C120.646 77.9699 123.077 81.1261 125.508 84.2827C125.828 84.6985 126.177 85.092 126.801 85.4074C126.801 84.7446 126.8 84.0817 126.801 83.4188C126.802 80.7144 126.787 78.0099 126.814 75.3057C126.824 74.3665 127.282 73.703 128.298 73.6852C129.323 73.6672 129.808 74.3234 129.813 75.2647C129.838 80.0774 129.864 84.8911 129.777 89.7023C129.766 90.2691 129.163 91.0912 128.639 91.2981C128.219 91.4641 127.3 91.0379 126.948 90.5977C124.402 87.4165 121.943 84.1647 119.457 80.9359C119.099 80.4723 118.738 80.0121 118.207 79.3296C118.141 79.916 118.074 80.2431 118.073 80.5704C118.065 83.5499 118.063 86.5293 118.071 89.5088C118.074 90.5479 117.753 91.3948 116.586 91.4134C115.399 91.4324 115.099 90.5956 115.102 89.544C115.116 85.052 115.108 80.5599 115.108 75.9393Z" fill="#1A609A"/>
<path d="M24.989 73.9447C27.1318 73.9448 29.1468 73.9106 31.1602 73.9525C34.8839 74.0301 37.0111 76.1953 36.7108 79.5808C36.4968 81.9948 35.0143 83.3131 33.0687 83.8748C34.2658 85.5564 35.5035 87.2856 36.7302 89.0226C37.2547 89.7653 37.531 90.5351 36.572 91.1444C35.6792 91.7117 34.8762 91.4503 34.2985 90.6376C33.3704 89.332 32.4888 87.9925 31.6127 86.6508C30.047 84.2528 29.2094 83.8997 26.046 84.4649C26.046 86.0209 26.0489 87.6126 26.0452 89.2043C26.0415 90.7814 25.565 91.4877 24.4783 91.4183C23.1328 91.3324 22.9482 90.4061 22.9551 89.2763C22.9825 84.8314 22.9625 80.3862 22.9683 75.9411C22.9705 74.3262 23.229 74.0648 24.989 73.9447ZM32.3178 81.6042C33.6474 80.9268 33.9846 79.6958 33.6117 78.4597C33.3855 77.7098 32.6084 76.7199 31.934 76.5897C30.0472 76.2256 28.0851 76.2524 26.1437 76.1244C26.1437 78.2384 26.1437 80.0449 26.1437 82.0545C28.2042 81.9207 30.1533 81.794 32.3178 81.6042Z" fill="#1A609A"/>
<path d="M90.1038 81.8982C89.0899 82.717 88.1269 83.4469 87.3777 84.0147C88.4751 85.5713 89.73 87.3432 90.9753 89.1217C91.4799 89.8424 91.6471 90.5655 90.7753 91.1355C89.9497 91.6753 89.1428 91.5116 88.586 90.7571C87.6348 89.4681 86.6269 88.1847 85.9165 86.7619C84.7026 84.3312 82.7766 83.9473 80.2312 84.4462C80.2312 86.1051 80.2009 87.79 80.2418 89.4732C80.2694 90.6105 79.9009 91.4259 78.668 91.4077C77.4277 91.3893 77.1337 90.5321 77.1404 89.4174C77.1674 84.8775 77.164 80.3372 77.1421 75.7972C77.1372 74.7982 77.3873 73.9809 78.506 73.9725C81.1589 73.9526 83.843 73.7949 86.459 74.1288C90.4883 74.6431 92.08 78.1776 90.1038 81.8982ZM80.7002 81.9233C82.519 81.8501 84.3525 81.8936 86.1513 81.664C87.4161 81.5026 87.8593 80.434 87.8988 79.2174C87.9382 78.0069 87.5844 76.8522 86.3445 76.6357C84.3664 76.2904 82.3336 76.2591 80.1077 76.0773C80.2369 78.2659 80.3431 80.0672 80.7002 81.9233Z" fill="#1A609A"/>
<path d="M55.9545 77.0334C57.6737 79.8883 57.7904 82.875 56.987 85.8784C55.9408 89.7893 52.5351 91.922 48.2418 91.5655C44.2383 91.233 41.397 88.424 40.9255 84.2798C40.8276 83.4197 40.8282 82.5408 40.8656 81.6741C41.0263 77.9452 43.0174 75.1422 46.1945 74.1165C49.9465 72.9052 53.5833 73.9654 55.9545 77.0334ZM45.3793 77.8033C43.5737 80.5198 43.5941 83.4159 44.7016 86.3317C45.4315 88.2535 47.3031 89.3629 49.2333 89.2824C51.3796 89.1929 53.2584 87.9786 53.7159 85.8897C54.098 84.1448 54.1623 82.2694 54.0055 80.4836C53.837 78.5638 52.7789 77.0166 50.8096 76.4107C48.8349 75.8031 47.009 76.0817 45.3793 77.8033Z" fill="#1A609A"/>
<path d="M94.6373 88.1244C96.661 83.8031 98.6333 79.5732 100.602 75.3418C101 74.4868 101.434 73.6832 102.55 73.672C103.73 73.6601 104.159 74.4895 104.583 75.4046C106.66 79.8885 108.757 84.3632 110.872 88.829C111.317 89.7672 111.506 90.6049 110.365 91.1236C109.232 91.6386 108.491 90.9598 108.29 90.0065C107.708 87.2523 105.939 86.6479 103.48 87.0308C103.078 87.0935 102.65 87.0911 102.247 87.0313C99.5485 86.6311 97.444 87.1098 96.7928 90.2662C96.6096 91.1547 95.7825 91.5633 94.8298 91.1307C93.8859 90.7021 93.7397 89.9799 94.18 89.0873C94.3217 88.8 94.4501 88.5062 94.6373 88.1244ZM103.587 79.5818C103.285 78.9333 102.982 78.2847 102.593 77.4484C101.474 79.9399 100.441 82.2392 99.3776 84.6069C101.62 84.6069 103.647 84.6069 105.832 84.6069C105.076 82.9131 104.374 81.3417 103.587 79.5818Z" fill="#1A609A"/>
<path d="M8.23504 90.7728C7.50187 90.9896 6.72497 91.3875 6.20187 91.171C5.76739 90.9911 5.40721 90.0915 5.39898 89.5054C5.3347 84.9238 5.38438 80.3408 5.35009 75.7585C5.34033 74.4529 5.9309 73.931 7.17395 73.9411C9.27958 73.9583 11.3866 73.901 13.4909 73.9566C16.8751 74.046 18.8868 76.0648 18.86 79.2573C18.8343 82.3277 16.7717 84.313 13.4595 84.4023C11.8697 84.4451 10.2779 84.4096 8.702 84.4096C8.56152 86.61 8.43135 88.6489 8.23504 90.7728ZM15.0819 77.045C13.0283 75.7006 10.7843 76.3531 8.4745 76.2609C8.4745 77.3313 8.4745 78.2402 8.4745 79.1491C8.4745 80.0973 8.4745 81.0455 8.4745 82.0639C10.1466 82.0639 11.6651 82.2277 13.1343 82.0282C15.8174 81.6638 16.6601 79.5873 15.0819 77.045Z" fill="#1A609A"/>
<path d="M158.604 76.2257C157.659 76.2258 156.847 76.2258 155.954 76.2258C155.954 77.9433 155.954 79.4835 155.954 81.3029C157.287 81.3029 158.635 81.3027 159.982 81.303C160.944 81.3031 161.926 81.1908 162.861 81.3501C163.359 81.435 163.777 81.99 164.232 82.3329C163.782 82.7485 163.362 83.4757 162.876 83.5226C161.287 83.676 159.674 83.5819 158.071 83.5828C157.393 83.5831 156.716 83.5828 155.954 83.5828C155.954 85.379 155.954 87.0563 155.954 88.9147C156.415 88.9464 156.893 89.0051 157.371 89.0078C159.341 89.0188 161.311 89.0161 163.281 89.0115C164.045 89.0097 164.802 89.1993 164.623 90.1028C164.533 90.559 163.854 91.2216 163.424 91.2353C160.358 91.3333 157.286 91.3098 154.217 91.2743C153.308 91.2638 152.794 90.72 152.794 89.7704C152.794 85.0006 152.791 80.2307 152.796 75.4608C152.797 74.4317 153.391 73.9583 154.361 73.9532C157.339 73.9378 160.319 73.8955 163.293 74.0002C163.768 74.0169 164.512 74.6707 164.618 75.1446C164.817 76.039 164.036 76.2292 163.275 76.2265C161.763 76.2213 160.251 76.2254 158.604 76.2257Z" fill="#1A609A"/>
<path d="M146.127 87.9415C146.921 87.4884 147.684 86.8127 148.351 87.8264C149.026 88.8532 148.328 89.5193 147.523 90.0886C142.16 93.8819 134.864 90.651 134.158 84.1426C134.046 83.1028 134.045 82.0264 134.172 80.9889C134.96 74.5487 142.159 71.3999 147.495 75.1372C147.756 75.3203 148.154 75.5033 148.209 75.7488C148.335 76.3167 148.475 77.017 148.242 77.4766C148.112 77.7326 147.184 77.7889 146.722 77.6281C145.701 77.2724 144.792 76.5368 143.757 76.2872C140.672 75.5429 138.23 77.0666 137.646 80.186C137.365 81.6836 137.318 83.3115 137.58 84.8072C138.223 88.4732 141.363 90.0492 144.823 88.6205C145.243 88.447 145.633 88.2022 146.127 87.9415Z" fill="#1A609A"/>
<path d="M66.7168 73.9465C68.4098 73.9465 69.9655 73.9323 71.5208 73.9515C72.5401 73.9641 73.8275 73.6791 73.86 75.2912C73.8926 76.9081 72.6183 76.6814 71.5858 76.6962C70.4058 76.7132 69.2253 76.7001 67.8782 76.7001C67.8782 77.8124 67.8782 78.8059 67.8782 79.7994C67.8781 82.9594 67.8652 86.1195 67.8851 89.2794C67.8921 90.3818 67.7861 91.3424 66.3591 91.3657C65.1776 91.3851 64.7596 90.8341 64.7572 89.2119C64.752 85.5481 64.7556 81.8843 64.7555 78.2205C64.7555 77.7721 64.7555 77.3238 64.7555 76.6999C63.2402 76.6999 61.8383 76.6863 60.4368 76.7046C59.4798 76.7171 58.7764 76.3854 58.7661 75.3401C58.7558 74.3002 59.4362 73.9367 60.4029 73.9428C62.4616 73.9558 64.5205 73.9466 66.7168 73.9465Z" fill="#1A609A"/>
</svg>
