<svg width="13" height="13" viewBox="0 0 13 13" fill="none" xmlns="http://www.w3.org/2000/svg">
<path fill-rule="evenodd" clip-rule="evenodd" d="M5.06799 1.55369C4.93854 1.62405 4.86957 1.71928 4.57814 2.22989L4.30861 2.70215L3.72539 2.70288C3.0605 2.7037 2.99536 2.71514 2.85502 2.85548C2.71468 2.99582 2.70324 3.06096 2.70242 3.72585L2.70169 4.30907L2.22943 4.5786C1.96969 4.72685 1.72153 4.87877 1.67799 4.91622C1.54896 5.02722 1.50127 5.14579 1.51296 5.32657C1.52257 5.47476 1.53486 5.50141 1.81911 5.99107L2.11524 6.50121L1.81868 7.0106C1.53317 7.50105 1.52178 7.52575 1.51257 7.67439C1.50134 7.85521 1.54927 7.97407 1.67808 8.08474C1.72168 8.12219 1.96997 8.27411 2.22987 8.42236L2.70239 8.69189L2.70277 9.28019C2.703 9.65669 2.71275 9.89716 2.72982 9.94816C2.77362 10.079 2.86613 10.1818 2.99337 10.2411C3.10971 10.2952 3.13116 10.2969 3.71096 10.2975L4.30861 10.2982L4.57814 10.771C4.72639 11.031 4.87831 11.2793 4.91576 11.3227C5.02669 11.4513 5.1455 11.4992 5.3261 11.4879C5.47475 11.4787 5.49943 11.4673 5.99025 11.1816L6.50002 10.8848L7.00978 11.1816C7.50061 11.4673 7.52529 11.4787 7.67393 11.4879C7.85438 11.4991 7.97311 11.4514 8.08428 11.323C8.12173 11.2798 8.27365 11.0316 8.42189 10.7715L8.69143 10.2987L9.27464 10.298C9.93957 10.2973 10.0047 10.2858 10.145 10.1455C10.2854 10.0051 10.2968 9.94 10.2976 9.27511L10.2983 8.69189L10.7706 8.42236C11.0303 8.27411 11.2785 8.12219 11.3221 8.08474C11.4508 7.974 11.4987 7.85517 11.4875 7.67439C11.4783 7.52582 11.4668 7.50082 11.1816 7.0101L10.8853 6.5002L11.1819 5.99057C11.4679 5.49914 11.4788 5.47544 11.4878 5.32657C11.4987 5.14582 11.4506 5.02675 11.3221 4.91622C11.2785 4.87877 11.0303 4.72685 10.7706 4.5786L10.2983 4.30907L10.2976 3.72585C10.2968 3.06096 10.2854 2.99582 10.145 2.85548C10.0047 2.71511 9.93957 2.7037 9.27464 2.70295L8.69143 2.70229L8.42189 2.22944C8.27365 1.96938 8.12173 1.7212 8.08428 1.67793C7.97286 1.54924 7.85438 1.50175 7.67393 1.51343C7.52574 1.52303 7.49909 1.53532 7.00988 1.81931L6.50018 2.11516L5.99035 1.81872C5.48377 1.52418 5.47943 1.52224 5.31643 1.51507C5.18818 1.50942 5.13394 1.51785 5.06799 1.55369Z" fill="white"/>
</svg>
