<svg width="124" height="63" viewBox="0 0 124 63" fill="none" xmlns="http://www.w3.org/2000/svg">
<path d="M54.9752 21.2028C50.4846 23.0471 47.2435 26.1592 45.0347 30.4092C41.0537 24.8128 40.4264 14.615 46.5889 7.2518C54.0026 -1.60621 66.5663 -2.13935 74.6318 4.50626C83.3759 11.711 83.6353 23.3655 79.0701 30.3462C73.3801 21.1993 65.5096 17.7779 54.9752 21.2028ZM54.5819 2.71962C51.9903 3.85891 49.6955 5.43064 47.8583 7.59065C44.0675 12.0474 42.5894 17.204 43.4164 22.9996C43.6617 24.7188 44.1504 26.3764 44.9128 27.8484C46.1945 26.431 47.4481 25.0646 48.6686 23.6691C48.8196 23.4965 48.8479 23.1676 48.8414 22.9134C48.8001 21.2986 48.4686 19.6414 48.7226 18.078C49.5811 12.7951 52.6098 9.19215 57.6367 7.28579C57.9519 7.16624 58.2466 6.8097 58.4041 6.49078C58.8521 5.58303 59.1642 4.60529 59.6435 3.71648C60.1003 2.86927 60.7002 2.09937 61.2799 1.23154C58.9396 1.2808 56.7884 1.81852 54.5819 2.71962ZM80.1634 15.2288C77.6733 5.6286 68.5499 0.999773 63.0065 1.36086C63.7985 2.90836 64.7144 4.51521 65.4388 6.20431C65.7228 6.86643 66.0717 7.14252 66.6782 7.44943C68.0907 8.1642 69.5681 8.87447 70.7508 9.8975C74.7154 13.3268 75.993 17.7546 75.1504 22.8668C75.1097 23.1133 75.1296 23.4647 75.2757 23.6323C76.5078 25.0463 77.7759 26.4288 79.0794 27.8718C80.8867 23.8596 81.2494 19.6831 80.1634 15.2288ZM59.2888 18.8186C59.7105 18.7673 60.1321 18.7161 60.4083 18.6825C59.7181 17.0748 58.8408 15.5161 58.389 13.8423C57.9379 12.1706 57.913 10.3837 57.7014 8.64891C52.7774 9.48957 48.113 17.8909 50.0726 22.3958C51.5029 21.6453 52.8851 20.7608 54.3842 20.1776C55.9107 19.5839 57.5522 19.2867 59.2888 18.8186ZM73.9703 17.5843C73.1248 12.8126 68.875 9.08724 66.0558 8.68574C66.3807 12.3217 65.5564 15.6556 63.2793 18.6675C67.2689 18.965 70.7374 20.2922 73.876 22.5224C74.3112 21.4156 74.3524 19.319 73.9703 17.5843ZM62.9347 3.63789C62.6449 3.24896 62.3551 2.86003 62.0565 2.45917C57.8931 6.71786 58.2908 14.6273 62.0216 18.1348C65.1816 14.9651 66.1251 8.4416 62.9347 3.63789Z" fill="white"/>
<path d="M63.5346 25.2983C68.655 25.763 73.4494 29.7582 74.8285 34.7077C74.898 34.9572 74.7686 35.4025 74.5729 35.5657C67.4798 41.4839 56.5431 41.5219 49.486 35.6521C49.2641 35.4676 49.081 34.9974 49.1522 34.7341C50.7849 28.6963 57.2948 24.4098 63.5346 25.2983ZM70.6351 30.3413C66.9381 33.5766 59.5189 35.3951 52.9577 30.1231C52.2051 31.3776 51.4867 32.6172 50.725 33.8295C50.2327 34.613 50.5517 35.0231 51.226 35.4911C57.6057 39.9186 66.1558 39.9653 72.6009 35.5733C73.6867 34.8333 73.7958 34.7704 73.1732 33.6884C72.4814 32.4862 71.5642 31.414 70.6351 30.3413ZM57.643 31.483C62.4918 33.4304 67.8559 31.537 69.8337 29.2571C64.9611 25.0576 57.8382 25.8293 54.1556 29.3575C55.0962 30.3517 56.3113 30.889 57.643 31.483Z" fill="white"/>
<path d="M85.4361 49.8995C85.4056 49.1331 85.4272 48.4751 86.1932 48.2061C87.0014 47.9223 87.4357 48.4505 87.8658 49.0143C89.7467 51.4801 91.6393 53.937 93.5316 56.3941C93.7809 56.7178 94.0526 57.0241 94.5378 57.2696C94.5378 56.7536 94.5375 56.2376 94.5378 55.7217C94.5389 53.6165 94.5271 51.5113 94.5485 49.4063C94.5559 48.6753 94.9128 48.1588 95.7036 48.1449C96.5011 48.1309 96.8785 48.6417 96.8823 49.3744C96.9018 53.1207 96.9226 56.8677 96.8543 60.6128C96.8463 61.0539 96.3767 61.6938 95.9688 61.8549C95.6415 61.9841 94.9267 61.6523 94.6524 61.3097C92.6704 58.8335 90.7569 56.3022 88.8211 53.7889C88.5431 53.428 88.2617 53.0698 87.8481 52.5386C87.7974 52.995 87.7452 53.2496 87.7445 53.5044C87.7381 55.8236 87.7366 58.1429 87.7428 60.4621C87.7449 61.2709 87.495 61.9302 86.5867 61.9447C85.6631 61.9595 85.4289 61.3081 85.4315 60.4895C85.4426 56.9929 85.4361 53.4962 85.4361 49.8995Z" fill="white"/>
<path d="M15.2872 48.3481C16.9551 48.3482 18.5236 48.3215 20.0909 48.3541C22.9894 48.4145 24.6452 50.0999 24.4115 52.7352C24.2449 54.6143 23.0909 55.6405 21.5765 56.0777C22.5083 57.3866 23.4717 58.7327 24.4265 60.0848C24.8348 60.6629 25.0499 61.2621 24.3034 61.7364C23.6084 62.178 22.9834 61.9745 22.5337 61.3419C21.8113 60.3256 21.125 59.2829 20.4431 58.2385C19.2243 56.372 18.5724 56.0971 16.11 56.537C16.11 57.7482 16.1122 58.9873 16.1093 60.2262C16.1065 61.4539 15.7355 62.0037 14.8896 61.9496C13.8423 61.8827 13.6986 61.1617 13.704 60.2823C13.7253 56.8223 13.7098 53.3621 13.7143 49.902C13.7159 48.645 13.9172 48.4415 15.2872 48.3481ZM20.9919 54.3103C22.0269 53.7829 22.2894 52.8248 21.9991 51.8625C21.8231 51.2789 21.2182 50.5083 20.6932 50.407C19.2245 50.1235 17.6972 50.1444 16.186 50.0447C16.186 51.6903 16.186 53.0964 16.186 54.6608C17.7899 54.5566 19.3071 54.458 20.9919 54.3103Z" fill="white"/>
<path d="M65.9729 54.538C65.1837 55.1754 64.434 55.7435 63.8508 56.1856C64.705 57.3972 65.6819 58.7764 66.6513 60.1609C67.044 60.7218 67.1742 61.2847 66.4956 61.7284C65.8529 62.1486 65.2248 62.0211 64.7914 61.4338C64.0509 60.4305 63.2664 59.4314 62.7134 58.324C61.7686 56.4319 60.2693 56.133 58.288 56.5214C58.288 57.8127 58.2643 59.1243 58.2962 60.4344C58.3177 61.3198 58.0309 61.9545 57.0711 61.9403C56.1057 61.926 55.8769 61.2587 55.882 60.391C55.9031 56.8571 55.9004 53.3229 55.8834 49.789C55.8796 49.0114 56.0742 48.3751 56.945 48.3686C59.0101 48.3531 61.0994 48.2304 63.1357 48.4903C66.2721 48.8907 67.5111 51.6419 65.9729 54.538ZM58.6531 54.5576C60.0688 54.5006 61.496 54.5344 62.8962 54.3557C63.8807 54.2301 64.2257 53.3983 64.2565 52.4513C64.2871 51.509 64.0117 50.6102 63.0466 50.4417C61.5068 50.1729 59.9245 50.1485 58.1918 50.007C58.2924 51.7107 58.3751 53.1127 58.6531 54.5576Z" fill="white"/>
<path d="M39.3909 50.7531C40.7291 52.9754 40.8199 55.3003 40.1946 57.6382C39.3802 60.6824 36.7292 62.3425 33.3873 62.065C30.2709 61.8062 28.0592 59.6197 27.6922 56.3938C27.616 55.7243 27.6165 55.0401 27.6456 54.3655C27.7707 51.4629 29.3205 49.2811 31.7936 48.4827C34.7142 47.5398 37.5451 48.365 39.3909 50.7531ZM31.1591 51.3525C29.7536 53.467 29.7695 55.7213 30.6315 57.991C31.1997 59.4869 32.6566 60.3505 34.159 60.2878C35.8297 60.2182 37.2922 59.2729 37.6483 57.6469C37.9458 56.2887 37.9958 54.8289 37.8738 53.4388C37.7426 51.9444 36.9189 50.7401 35.386 50.2684C33.849 49.7955 32.4276 50.0123 31.1591 51.3525Z" fill="white"/>
<path d="M69.5017 59.3867C71.077 56.0229 72.6122 52.7304 74.1448 49.4366C74.4545 48.7711 74.7925 48.1455 75.661 48.1368C76.5797 48.1276 76.9136 48.7732 77.2435 49.4855C78.8602 52.9757 80.4924 56.4589 82.1391 59.9351C82.485 60.6654 82.6321 61.3175 81.744 61.7213C80.8622 62.1221 80.2858 61.5937 80.1291 60.8517C79.6763 58.7078 78.2992 58.2373 76.3848 58.5354C76.0717 58.5842 75.7386 58.5823 75.4248 58.5358C73.3246 58.2242 71.6864 58.5968 71.1796 61.0538C71.0369 61.7455 70.3931 62.0635 69.6516 61.7268C68.9168 61.3931 68.803 60.831 69.1458 60.1362C69.2561 59.9126 69.356 59.6838 69.5017 59.3867ZM76.4682 52.737C76.2329 52.2322 75.9976 51.7274 75.6942 51.0764C74.8231 53.0158 74.0193 54.8056 73.1916 56.6486C74.937 56.6486 76.515 56.6486 78.2161 56.6486C77.627 55.3301 77.0805 54.107 76.4682 52.737Z" fill="white"/>
<path d="M2.24575 61.4471C1.67505 61.6159 1.0703 61.9256 0.663119 61.7571C0.324916 61.6171 0.0445508 60.9168 0.0381477 60.4606C-0.0118935 56.8942 0.0267772 53.3268 9.27726e-05 49.76C-0.00751106 48.7436 0.452194 48.3374 1.41979 48.3453C3.05883 48.3586 4.69897 48.314 6.33697 48.3573C8.97121 48.4269 10.5371 49.9983 10.5163 52.4834C10.4963 54.8734 8.89071 56.4188 6.31247 56.4883C5.07501 56.5216 3.83592 56.494 2.60923 56.494C2.49988 58.2068 2.39856 59.7939 2.24575 61.4471ZM7.5754 50.7614C5.97686 49.7148 4.23011 50.2227 2.43214 50.151C2.43214 50.9842 2.43214 51.6917 2.43214 52.3992C2.43214 53.1373 2.43214 53.8753 2.43214 54.668C3.7337 54.668 4.91571 54.7956 6.05939 54.6403C8.1479 54.3567 8.80388 52.7403 7.5754 50.7614Z" fill="white"/>
<path d="M119.294 50.1236C118.558 50.1237 117.926 50.1237 117.231 50.1237C117.231 51.4606 117.231 52.6595 117.231 54.0757C118.269 54.0757 119.318 54.0756 120.366 54.0758C121.115 54.0759 121.879 53.9884 122.607 54.1124C122.995 54.1785 123.321 54.6106 123.674 54.8775C123.324 55.201 122.997 55.767 122.619 55.8035C121.382 55.9229 120.127 55.8497 118.879 55.8504C118.351 55.8507 117.824 55.8504 117.231 55.8504C117.231 57.2486 117.231 58.5542 117.231 60.0008C117.59 60.0255 117.962 60.0712 118.334 60.0732C119.868 60.0818 121.401 60.0797 122.935 60.0761C123.529 60.0747 124.119 60.2223 123.979 60.9256C123.909 61.2807 123.381 61.7965 123.046 61.8072C120.659 61.8834 118.268 61.8652 115.879 61.8375C115.172 61.8293 114.771 61.4061 114.771 60.6669C114.771 56.954 114.769 53.2411 114.773 49.5282C114.774 48.7271 115.236 48.3586 115.991 48.3547C118.309 48.3427 120.629 48.3097 122.944 48.3912C123.314 48.4042 123.893 48.9132 123.975 49.2821C124.13 49.9783 123.522 50.1263 122.929 50.1242C121.753 50.1202 120.576 50.1234 119.294 50.1236Z" fill="white"/>
<path d="M109.582 59.2433C110.2 58.8906 110.794 58.3646 111.313 59.1537C111.838 59.9529 111.295 60.4714 110.668 60.9146C106.494 63.8673 100.815 61.3524 100.265 56.2862C100.177 55.4768 100.177 54.6389 100.276 53.8313C100.889 48.8182 106.493 46.3672 110.646 49.2763C110.85 49.4189 111.16 49.5613 111.202 49.7524C111.3 50.1945 111.409 50.7396 111.228 51.0974C111.126 51.2966 110.404 51.3404 110.045 51.2153C109.25 50.9384 108.542 50.3658 107.737 50.1715C105.336 49.5922 103.434 50.7782 102.98 53.2064C102.761 54.3721 102.724 55.6392 102.929 56.8035C103.429 59.6572 105.874 60.8839 108.566 59.7718C108.893 59.6367 109.197 59.4462 109.582 59.2433Z" fill="white"/>
<path d="M47.7683 48.3492C49.0861 48.3492 50.2971 48.3382 51.5077 48.3531C52.3012 48.3629 53.3033 48.1411 53.3286 49.3959C53.354 50.6546 52.362 50.4781 51.5584 50.4896C50.6398 50.5028 49.7209 50.4927 48.6723 50.4927C48.6723 51.3585 48.6723 52.1318 48.6723 52.9051C48.6723 55.3649 48.6622 57.8248 48.6777 60.2845C48.6831 61.1425 48.6007 61.8903 47.4899 61.9085C46.5702 61.9235 46.2448 61.4946 46.243 60.2319C46.2389 57.38 46.2416 54.528 46.2416 51.6761C46.2416 51.3271 46.2416 50.9782 46.2416 50.4925C45.0621 50.4925 43.9709 50.4819 42.8799 50.4961C42.135 50.5059 41.5875 50.2477 41.5794 49.434C41.5714 48.6246 42.101 48.3416 42.8536 48.3463C44.4561 48.3565 46.0587 48.3493 47.7683 48.3492Z" fill="white"/>
</svg>
