<svg width="24" height="24" viewBox="0 0 24 24" fill="none" xmlns="http://www.w3.org/2000/svg">
<path fill-rule="evenodd" clip-rule="evenodd" d="M11.4613 2.11529C11.3326 2.17897 11.0428 2.38792 10.8172 2.57951C10.5917 2.77115 10.3448 2.97103 10.2687 3.02367C10.0979 3.14179 9.69329 3.14593 9.2311 3.03431C8.55771 2.87174 7.96205 2.95199 7.64412 3.24814C7.48182 3.39935 7.22868 3.88938 7.11488 4.27273C6.99251 4.68486 6.81453 5.00817 6.65089 5.11536C6.57249 5.16677 6.26435 5.29373 5.96625 5.39756C5.66808 5.50145 5.32959 5.64896 5.21395 5.72546C4.73187 6.04452 4.58368 6.55213 4.73887 7.35271C4.89551 8.16056 4.89831 8.20144 4.81072 8.41107C4.76446 8.52173 4.5587 8.80483 4.35345 9.04015C3.47598 10.0463 3.49626 10.5152 4.46546 11.628C4.86588 12.0877 4.90973 12.2444 4.80198 12.8293C4.61084 13.8671 4.64198 14.2165 4.95784 14.5762C5.16422 14.8112 5.39809 14.9375 6.05568 15.1686C6.32366 15.2629 6.55059 15.3471 6.56 15.3559C6.56941 15.3646 6.0302 16.5402 5.3618 17.9682C4.6678 19.4509 4.14596 20.6344 4.14528 20.7274C4.14383 20.923 4.3339 21.0972 4.547 21.0954C4.62826 21.0947 5.21143 21.0085 5.84287 20.904C6.90207 20.7285 6.99649 20.721 7.06263 20.8063C7.10206 20.8571 7.37715 21.3149 7.67391 21.8237C7.97062 22.3325 8.26408 22.8054 8.32602 22.8748C8.46849 23.0343 8.75551 23.0429 8.89227 22.8919C8.94643 22.832 9.25439 22.2209 9.57658 21.5338C9.89872 20.8468 10.3772 19.827 10.6397 19.2678L11.1171 18.2509L11.402 18.3988C11.6115 18.5075 11.7708 18.5466 12.0033 18.5466C12.2358 18.5466 12.395 18.5075 12.6045 18.3988L12.8895 18.2509L13.3669 19.2678C13.6294 19.827 14.1078 20.8468 14.43 21.5338C14.7522 22.2209 15.0601 22.832 15.1143 22.8919C15.251 23.0429 15.5381 23.0343 15.6805 22.8748C15.7425 22.8054 16.0359 22.3325 16.3326 21.8237C16.6294 21.3149 16.9045 20.8554 16.9439 20.8025C17.0111 20.7122 17.087 20.7183 18.1637 20.9007C18.7951 21.0077 19.3783 21.0955 19.4596 21.0959C19.6728 21.097 19.8627 20.9229 19.8614 20.7274C19.8608 20.6342 19.3406 19.4535 18.6455 17.9676C17.9774 16.5392 17.4381 15.3636 17.4472 15.3552C17.4563 15.3468 17.6829 15.2629 17.9509 15.1686C18.6085 14.9375 18.8423 14.8112 19.0487 14.5762C19.3646 14.2165 19.3957 13.8671 19.2046 12.8293C19.0935 12.2264 19.1359 12.0971 19.6349 11.5162C20.0975 10.9777 20.2437 10.7101 20.2798 10.3354C20.3147 9.97491 20.1235 9.57947 19.6541 9.04128C19.4483 8.80533 19.2421 8.52173 19.1958 8.41107C19.1082 8.20144 19.1111 8.16056 19.2677 7.35271C19.4801 6.25722 19.1625 5.75178 18.0365 5.39325C17.7829 5.31255 17.4946 5.19729 17.3958 5.1372C17.1994 5.01774 17.0231 4.71555 16.8917 4.27273C16.7779 3.88938 16.5247 3.39935 16.3624 3.24814C16.0445 2.95199 15.4489 2.87174 14.7755 3.03431C14.3133 3.14593 13.9086 3.14179 13.7379 3.02367C13.6617 2.97103 13.4139 2.77031 13.1871 2.57766C12.9604 2.38501 12.6689 2.17606 12.5394 2.11333C12.2257 1.96151 11.7703 1.96229 11.4613 2.11529ZM11.8073 2.86972C11.7149 2.91536 11.4514 3.11978 11.2217 3.32402C10.4846 3.97943 10.1471 4.06092 9.05082 3.84805C8.2204 3.68681 8.17806 3.71571 7.85828 4.66162C7.54779 5.58019 7.23372 5.86962 6.19054 6.19847C5.63325 6.37415 5.50662 6.48157 5.50774 6.77777C5.50819 6.90641 5.5451 7.16291 5.58973 7.34772C5.63437 7.53253 5.67178 7.87987 5.67284 8.11962C5.67531 8.65827 5.55641 8.92025 5.04017 9.51327C4.39092 10.2591 4.39226 10.2985 5.09488 11.0859C5.53037 11.574 5.67486 11.9003 5.67486 12.3956C5.67486 12.6186 5.63577 12.9697 5.588 13.1758C5.54017 13.3818 5.5087 13.6535 5.51799 13.7794C5.53927 14.0687 5.72341 14.2035 6.36684 14.401C6.94485 14.5784 7.35889 14.8554 7.56078 15.2C7.64591 15.3452 7.80451 15.7146 7.91327 16.0209C8.17436 16.7561 8.26318 16.8281 8.79415 16.7352C9.00366 16.6986 9.3263 16.6422 9.51111 16.6099C10.1646 16.4957 10.62 16.6599 11.2611 17.2408C11.4691 17.4293 11.7212 17.6226 11.8213 17.6704C11.9856 17.7487 12.0209 17.7487 12.1853 17.6704C12.2854 17.6226 12.5375 17.4293 12.7455 17.2408C13.4614 16.592 13.8893 16.4755 14.8496 16.6683C15.1675 16.7322 15.4729 16.7844 15.5281 16.7844C15.7482 16.7844 15.9122 16.5667 16.0877 16.0417C16.4318 15.0121 16.7523 14.6733 17.6397 14.401C18.2831 14.2035 18.4673 14.0687 18.4886 13.7794C18.4979 13.6535 18.4664 13.3818 18.4186 13.1758C18.3708 12.9697 18.3319 12.62 18.3323 12.3986C18.3329 11.8952 18.4741 11.5717 18.9004 11.0967C19.6158 10.2994 19.6174 10.2611 18.9664 9.51327C18.4502 8.92025 18.3313 8.65827 18.3337 8.11962C18.3348 7.87987 18.3722 7.53253 18.4168 7.34772C18.4615 7.16291 18.4984 6.90641 18.4988 6.77777C18.4999 6.48157 18.3733 6.37415 17.816 6.19847C16.7728 5.86962 16.4588 5.58019 16.1483 4.66162C15.8285 3.71571 15.7862 3.68681 14.9557 3.84805C13.9023 4.05257 13.5004 3.96896 12.8924 3.41867C12.2415 2.82962 12.0672 2.74141 11.8073 2.86972ZM11.3872 4.94695C9.10402 5.24097 7.22868 6.96253 6.77074 9.18492C6.58671 10.0781 6.67626 11.2773 6.98899 12.1083C7.77813 14.2048 9.77461 15.6058 11.9753 15.6071C12.6397 15.6075 13.0905 15.5309 13.7541 15.305C16.7441 14.2868 18.1868 10.8283 16.818 7.9604C16.1177 6.49316 14.7965 5.43743 13.1794 5.05291C12.8077 4.96454 11.7406 4.90142 11.3872 4.94695ZM11.0792 5.84072C10.1805 6.04172 9.41115 6.47451 8.75506 7.14818C7.01156 8.93845 7.07926 11.806 8.90611 13.5442C9.75551 14.3523 10.8129 14.7687 12.0143 14.7678C14.0941 14.7664 15.8329 13.416 16.3767 11.38C16.5307 10.803 16.5452 9.82068 16.408 9.25879C16.0046 7.60764 14.7748 6.33708 13.1514 5.89415C12.6599 5.76007 11.566 5.7319 11.0792 5.84072ZM6.18668 18.1604C5.6869 19.2285 5.28905 20.1134 5.30249 20.1269C5.31599 20.1404 5.71608 20.0868 6.1916 20.008C7.16982 19.8457 7.35133 19.8354 7.48131 19.9346C7.53177 19.9731 7.80003 20.3923 8.07747 20.8661L8.58179 21.7277L8.71698 21.4262C8.79135 21.2603 9.14843 20.4946 9.5105 19.7245C9.87256 18.9545 10.2403 18.1669 10.3276 17.9744L10.4865 17.6243L10.2539 17.5056C9.99801 17.3751 9.86136 17.3787 8.97941 17.5398C8.03161 17.7129 7.53564 17.4342 7.21479 16.5481L7.09539 16.2184L6.18668 18.1604ZM16.8249 16.458C16.6482 17.061 16.2726 17.4669 15.8006 17.5649C15.5638 17.614 15.4054 17.6088 15.0271 17.5392C14.191 17.3856 13.9593 17.3792 13.7394 17.5036C13.6316 17.5647 13.5516 17.6483 13.5616 17.6895C13.5844 17.7827 15.3699 21.6145 15.4149 21.6665C15.4328 21.6873 15.6778 21.3092 15.9593 20.8264C16.3439 20.1666 16.5076 19.9353 16.6183 19.8954C16.7241 19.8572 17.0354 19.8847 17.7261 19.9933C18.2545 20.0763 18.6961 20.1348 18.7076 20.1234C18.7254 20.1055 17.1884 16.7739 16.971 16.3589L16.8959 16.2156L16.8249 16.458Z" fill="#040404"/>
</svg>
