<svg width="37" height="36" viewBox="0 0 37 36" fill="none" xmlns="http://www.w3.org/2000/svg">
<path d="M34.4388 27.6382C33.1409 26.3306 29.9974 24.4223 28.4723 23.6532C26.4862 22.6529 26.3227 22.5711 24.7616 23.7308C23.7203 24.5048 23.0281 25.1962 21.8094 24.9363C20.5908 24.6764 17.9426 23.2111 15.6239 20.8998C13.3051 18.5886 11.7547 15.8638 11.4939 14.6493C11.2332 13.4348 11.9361 12.7508 12.7028 11.7071C13.7833 10.236 13.7015 9.99086 12.778 8.00488C12.0579 6.46024 10.0939 3.34643 8.78122 2.05514C7.37705 0.668229 7.37705 0.91341 6.47227 1.28936C5.73564 1.59919 5.02897 1.9759 4.36111 2.41474C3.05339 3.2835 2.3276 4.00515 1.82004 5.08967C1.31248 6.17419 1.08445 8.71673 3.70562 13.4782C6.32679 18.2396 8.16577 20.6742 11.9721 24.4697C15.7784 28.2651 18.7052 30.3058 22.9839 32.7053C28.2769 35.6696 30.3072 35.0918 31.395 34.585C32.4829 34.0783 33.2079 33.3591 34.0783 32.0515C34.5183 31.3848 34.8959 30.679 35.2062 29.9429C35.583 29.0415 35.8282 29.0415 34.4388 27.6382Z" stroke="#D81680" stroke-width="2" stroke-miterlimit="10"/>
</svg>
