<svg width="40" height="40" viewBox="0 0 40 40" fill="none" xmlns="http://www.w3.org/2000/svg">
<path fill-rule="evenodd" clip-rule="evenodd" d="M22.4219 1.37345C24.5563 1.67415 26.3209 2.21634 28.2422 3.16165C30.3697 4.20845 31.8041 5.24696 33.4417 6.92634C34.9 8.42181 35.8586 9.76126 36.7644 11.5691C37.7929 13.6218 38.4071 15.7004 38.6757 18.0376C38.8158 19.2573 38.734 21.9025 38.5186 23.1154C37.8316 26.983 36.1583 30.2767 33.4793 33.0345C31.8177 34.7449 30.3889 35.7829 28.2422 36.8392C25.5527 38.1627 23.0182 38.7504 20 38.7504C16.3996 38.7504 13.0925 37.8075 10.0143 35.9034C8.48519 34.9576 6.62113 33.304 5.42949 31.8363C3.37262 29.3029 1.99223 26.2 1.43269 22.852C1.20941 21.5158 1.22926 18.2869 1.46902 16.9472C1.82058 14.9824 2.29386 13.5306 3.16058 11.7582C4.07878 9.8804 5.07832 8.4547 6.52207 6.9636C9.33168 4.06173 12.8472 2.20524 16.9141 1.47579C18.1522 1.25368 21.1735 1.19759 22.4219 1.37345ZM18.0469 11.4159C18.2811 11.5086 25.7978 18.9899 26.0288 19.3602C26.245 19.7066 26.245 20.2942 26.0288 20.6406C25.9402 20.7827 24.1343 22.6271 22.0159 24.7395C18.6912 28.0545 18.1186 28.5935 17.8321 28.6777C16.9244 28.9442 16.0561 28.0758 16.3229 27.1684C16.4069 26.8829 16.8986 26.3571 19.8293 23.4184L23.2382 20.0004L19.8661 16.6215C18.0116 14.7631 16.4568 13.1436 16.4111 13.0227C16.1921 12.442 16.3976 11.7869 16.8939 11.4844C17.17 11.316 17.7136 11.2838 18.0469 11.4159Z" fill="#1A609A"/>
</svg>
