<svg width="24" height="24" viewBox="0 0 24 24" fill="none" xmlns="http://www.w3.org/2000/svg">
<path fill-rule="evenodd" clip-rule="evenodd" d="M11.8347 3.62809C11.5929 3.73347 11.578 3.82483 11.578 5.20783C11.578 6.7233 11.5976 6.79703 11.9999 6.79703C12.4024 6.79703 12.4218 6.72381 12.4218 5.20328C12.4218 3.79441 12.4064 3.70923 12.1349 3.61459C12.053 3.58605 11.9838 3.5635 11.9812 3.56448C11.9786 3.56552 11.9127 3.59411 11.8347 3.62809ZM7.12836 4.70739C7.06086 4.77925 7.02214 4.87811 7.0227 4.97692C7.02369 5.13695 7.99925 7.36333 8.12229 7.48642C8.15736 7.52148 8.26273 7.56259 8.35643 7.57783C8.50292 7.60159 8.54679 7.58547 8.66961 7.46266C8.75783 7.37444 8.81239 7.27178 8.81239 7.19402C8.81239 7.02358 7.80392 4.77902 7.68106 4.67594C7.5349 4.55336 7.25829 4.56906 7.12836 4.70739ZM16.3187 4.67594C16.1959 4.77902 15.1874 7.02358 15.1874 7.19402C15.1874 7.27178 15.242 7.37444 15.3302 7.46266C15.453 7.58547 15.4969 7.60159 15.6433 7.57783C15.737 7.56259 15.8424 7.52148 15.8775 7.48642C16.0005 7.36333 16.9761 5.13695 16.9771 4.97692C16.979 4.65306 16.5693 4.46575 16.3187 4.67594ZM11.578 7.68527C11.4878 7.73322 11.3612 7.82786 11.2968 7.89559C11.2323 7.96333 10.8632 8.65619 10.4765 9.43525L9.77333 10.8517L8.24989 11.0738C7.412 11.1959 6.64887 11.3302 6.55409 11.3723C6.07854 11.5834 5.86283 12.188 6.08769 12.6798C6.14431 12.8037 6.55554 13.2425 7.30025 13.9736L8.42717 15.0798L8.17512 16.5517C7.90545 18.1266 7.88389 18.3668 7.9894 18.6194C8.07622 18.8271 8.37547 19.0975 8.60089 19.1718C8.93567 19.2823 9.1145 19.2201 10.3922 18.548C11.0573 18.1982 11.6911 17.8633 11.8007 17.8038L11.9999 17.6955L12.246 17.8269C14.8969 19.2429 15.022 19.2962 15.3989 19.1718C15.6198 19.099 15.932 18.8206 16.0149 18.6228C16.1162 18.3807 16.0912 18.1085 15.8251 16.5542L15.5735 15.0849L16.6979 13.9761C17.3164 13.3663 17.8624 12.7891 17.9112 12.6934C18.1488 12.2276 17.9226 11.5852 17.4457 11.3716C17.3509 11.3292 16.5878 11.1948 15.7499 11.0731L14.2265 10.8517L13.5233 9.43502C13.1366 8.65586 12.7675 7.96295 12.703 7.89531C12.4194 7.59761 11.9188 7.50409 11.578 7.68527ZM11.1612 9.94937C10.754 10.7808 10.3775 11.4994 10.3243 11.5462C10.2491 11.6126 9.8779 11.6823 8.6412 11.8623C7.76858 11.9893 7.00944 12.1038 6.95426 12.1166C6.6867 12.1789 6.75593 12.2688 8.03731 13.5229C9.18729 14.6484 9.28325 14.7546 9.28222 14.9016C9.28165 14.9892 9.164 15.7459 9.02079 16.5833C8.87759 17.4206 8.76683 18.161 8.7747 18.2287C8.78478 18.3157 8.81637 18.3517 8.8827 18.3517C8.93426 18.3517 9.62323 18.009 10.4138 17.59C11.4074 17.0634 11.8975 16.8283 12.0012 16.8283C12.1051 16.8283 12.6046 17.0682 13.622 17.6069C14.4746 18.0583 15.1224 18.3741 15.1635 18.3584C15.2032 18.3431 15.2342 18.274 15.2341 18.2008C15.234 18.1292 15.1182 17.3955 14.9766 16.5705C14.8351 15.7455 14.7187 14.9966 14.7178 14.9064C14.7164 14.7531 14.7961 14.6642 15.9377 13.547C17.1909 12.3205 17.3025 12.1772 17.0507 12.1176C16.9926 12.1039 16.2303 11.9881 15.3565 11.8602C14.1374 11.6817 13.7459 11.6082 13.6736 11.5443C13.6217 11.4985 13.2462 10.7808 12.8392 9.94937C12.2165 8.67761 12.0834 8.43766 12.0003 8.43766C11.9172 8.43766 11.784 8.67766 11.1612 9.94937ZM3.29651 13.2629C3.05511 13.3725 3.02103 13.4243 2.59095 14.3356C2.40022 14.7398 2.2295 15.0853 2.21164 15.1035C2.19373 15.1217 1.81006 15.1927 1.35903 15.2614C0.445716 15.4004 0.227373 15.4841 0.0865602 15.7494C-0.0099086 15.9312 -0.026268 16.2377 0.0498102 16.4378C0.077232 16.51 0.384966 16.857 0.73367 17.2089L1.36765 17.8487L1.21372 18.7845C1.06081 19.7143 1.06034 19.7216 1.14406 19.9409C1.25562 20.233 1.51151 20.4094 1.82051 20.4073C2.00675 20.406 2.15412 20.3421 2.82073 19.9736L3.60251 19.5414L4.38668 19.9739C5.02672 20.3269 5.20718 20.4064 5.36843 20.4064C5.59114 20.4064 5.82833 20.2865 5.96295 20.1059C6.13189 19.8792 6.13634 19.7029 5.99422 18.8617C5.92067 18.4265 5.8602 18.0172 5.85987 17.9521C5.8594 17.8636 6.02412 17.6606 6.51261 17.1476C7.20744 16.4179 7.26523 16.3178 7.19811 15.9601C7.16164 15.7656 6.94437 15.5015 6.76184 15.4297C6.69083 15.4017 6.26356 15.3235 5.81239 15.2557C5.36122 15.188 4.98809 15.1286 4.98322 15.1239C4.97829 15.1191 4.81161 14.7677 4.61276 14.3428C4.16923 13.3953 4.16356 13.3866 3.91868 13.2681C3.67437 13.1498 3.5479 13.1487 3.29651 13.2629ZM20.0773 13.2691C19.835 13.3891 19.8296 13.3975 19.387 14.3428C19.1882 14.7677 19.0215 15.1191 19.0166 15.1238C19.0117 15.1285 18.6386 15.1882 18.1874 15.2564C17.7362 15.3246 17.309 15.403 17.2379 15.4305C17.0559 15.501 16.8382 15.7652 16.8017 15.9601C16.7346 16.3173 16.7925 16.4178 17.4864 17.1487C17.8879 17.5716 18.1393 17.8733 18.1398 17.9328C18.1402 17.9859 18.079 18.4028 18.0038 18.8591C17.8512 19.7854 17.8597 19.9062 18.0956 20.1748C18.2619 20.3643 18.5619 20.4615 18.7805 20.3968C18.8618 20.3727 19.2583 20.1706 19.6616 19.9475L20.3947 19.542L21.1055 19.9313C21.8937 20.3629 22.0823 20.438 22.289 20.4026C22.6133 20.347 22.9218 20.0011 22.9218 19.693C22.9218 19.6348 22.8562 19.1965 22.7761 18.7189L22.6304 17.8506L23.2389 17.2339C23.5736 16.8948 23.8817 16.5498 23.9236 16.4673C24.0249 16.2682 24.0202 15.9511 23.9132 15.7494C23.7707 15.481 23.5541 15.3977 22.6436 15.2614C22.194 15.1941 21.8143 15.1275 21.7998 15.1135C21.7852 15.0994 21.5835 14.7043 21.3515 14.2354C20.9455 13.4152 20.9217 13.379 20.7204 13.2775C20.4613 13.1469 20.3279 13.1451 20.0773 13.2691ZM3.20975 14.9805C3.00692 15.408 2.79472 15.7941 2.73819 15.8386C2.66937 15.8927 2.38981 15.9558 1.89289 16.0292C1.48447 16.0896 1.0977 16.1531 1.03334 16.1703C0.922951 16.1998 0.952482 16.2388 1.55201 16.8548C1.90165 17.214 2.20104 17.5448 2.21726 17.5898C2.23348 17.6348 2.18239 18.0636 2.10373 18.5428C2.02503 19.022 1.97183 19.4252 1.98547 19.4389C1.99911 19.4525 2.33961 19.282 2.74208 19.06C3.15589 18.8318 3.52873 18.6566 3.60017 18.6569C3.67058 18.6572 4.05823 18.8409 4.47645 19.0721C4.88895 19.3003 5.23245 19.4822 5.23976 19.4763C5.24708 19.4705 5.18703 19.0718 5.10626 18.5904C5.0255 18.109 4.97248 17.663 4.98847 17.5993C5.00445 17.5356 5.30459 17.1884 5.6554 16.8278C6.00626 16.4671 6.27818 16.172 6.25972 16.172C6.0859 16.172 4.63076 15.9207 4.52154 15.8717C4.39972 15.8172 4.32514 15.6923 4.00592 15.0074C3.80065 14.567 3.62051 14.206 3.60561 14.205C3.5907 14.2041 3.41258 14.553 3.20975 14.9805ZM20.0036 15.0037C19.6677 15.6994 19.5848 15.8358 19.4708 15.8805C19.3635 15.9227 17.8813 16.172 17.7379 16.172C17.7183 16.172 17.9894 16.4638 18.3404 16.8204C18.7007 17.1865 18.992 17.5224 19.0094 17.592C19.0268 17.6612 18.9761 18.0985 18.8935 18.5904C18.8127 19.0718 18.7527 19.4705 18.76 19.4763C18.7673 19.4822 19.1108 19.3003 19.5233 19.0721C19.9491 18.8367 20.3287 18.6572 20.4015 18.6569C20.4753 18.6566 20.8393 18.8275 21.2599 19.0597C21.6615 19.2816 22.0015 19.4517 22.0154 19.4378C22.0294 19.4238 21.9753 19.0225 21.8954 18.5459C21.8154 18.0693 21.7638 17.6408 21.7806 17.5937C21.7975 17.5465 22.098 17.2144 22.4485 16.8556C23.1894 16.0972 23.228 16.1951 22.1249 16.0334C21.7253 15.9748 21.3486 15.8957 21.2879 15.8576C21.2171 15.8132 21.0381 15.4997 20.7894 14.9841L20.4012 14.1798L20.0036 15.0037Z" fill="#040404"/>
</svg>
