<svg width="36" height="36" viewBox="0 0 36 36" fill="none" xmlns="http://www.w3.org/2000/svg">
<path fill-rule="evenodd" clip-rule="evenodd" d="M16.8846 2.04118C14.1647 2.30429 11.6107 3.21223 9.36456 4.71432L8.54296 5.26381L8.50513 4.90929C8.46203 4.50514 8.32204 4.3591 7.97793 4.3591C7.64971 4.3591 7.49136 4.57236 7.4908 5.01518C7.48926 6.23595 7.52434 6.61001 7.65245 6.73812C7.77915 6.86482 9.11664 7.24191 9.43923 7.24191C9.72815 7.24191 9.91405 7.05193 9.91405 6.75661C9.91405 6.44759 9.76661 6.28081 9.4348 6.21443C9.31169 6.18983 9.21184 6.14989 9.21297 6.1257C9.21585 6.06453 9.92537 5.55863 10.4946 5.21192C15.2927 2.28945 21.4061 2.30344 26.1659 5.24778C27.6365 6.15748 28.6953 7.08975 30.1337 8.74154C30.3622 9.00387 30.4648 9.07004 30.6435 9.07004C30.9244 9.07004 31.1484 8.85481 31.1484 8.58488C31.1484 8.15604 29.3273 6.23131 27.9318 5.18527C25.7863 3.57694 23.2364 2.53294 20.4961 2.14081C19.5893 2.01108 17.7268 1.95968 16.8846 2.04118ZM17.0696 5.4166C12.2358 5.92271 8.1819 9.03333 6.42402 13.5851C5.36005 16.3401 5.36005 19.7999 6.42402 22.555C8.00661 26.6528 11.53 29.6548 15.7648 30.5132C19.0354 31.1763 22.4449 30.5258 25.2422 28.7049C27.751 27.0719 29.6001 24.5988 30.4724 21.7097C31.2287 19.2047 31.1768 16.4173 30.328 13.9632C29.1124 10.4484 26.4719 7.66379 23.0491 6.28707C22.1602 5.92953 21.2311 5.67057 20.2854 5.51672C19.4722 5.38447 17.8569 5.33419 17.0696 5.4166ZM17.2969 6.44513C13.2376 6.84816 9.8038 9.1575 7.94994 12.7313C6.52675 15.475 6.26582 18.7981 7.24211 21.7445C8.87111 26.6601 13.6942 29.9839 18.8086 29.7155C23.7263 29.4574 27.8534 26.3382 29.3792 21.7263C29.8356 20.3464 29.9132 19.8153 29.9132 18.07C29.9132 16.3276 29.8369 15.8022 29.382 14.4138C27.9574 10.065 24.1311 6.98541 19.5117 6.46995C18.9139 6.40322 17.84 6.3912 17.2969 6.44513ZM15.9961 9.3541C14.8359 10.0474 13.8314 10.682 13.7637 10.7643C13.6518 10.9001 13.6406 11.1319 13.6406 13.3149V15.7161L11.7598 16.8396C10.7252 17.4575 9.79185 18.048 9.68554 18.1518L9.49218 18.3405V20.9692C9.49218 22.9635 9.51341 23.6258 9.58007 23.7135C9.71254 23.8879 14.006 26.4364 14.168 26.4368C14.2453 26.437 15.2068 25.8981 16.3047 25.2392L18.3008 24.0413L20.3179 25.2393C21.4274 25.8981 22.3906 26.4372 22.4584 26.4372C22.6786 26.4372 26.9802 23.8295 27.0643 23.6451C27.1147 23.5343 27.1406 22.6136 27.1406 20.93C27.1406 18.7232 27.1258 18.3614 27.0297 18.2242C26.9686 18.137 26.0352 17.5402 24.9554 16.8979L22.9922 15.7301V13.389C22.9922 12.0851 22.9626 10.9703 22.9256 10.8727C22.8359 10.6369 18.5944 8.08376 18.3018 8.08953C18.1772 8.09199 17.3342 8.55436 15.9961 9.3541ZM16.4707 10.2786L14.6953 11.3387V13.5269V15.715L16.4907 16.7921C17.4781 17.3846 18.3125 17.859 18.345 17.8466C18.3775 17.8341 19.1991 17.3507 20.1707 16.7723L21.9375 15.7208V13.5378V11.3548L20.1506 10.2827C19.1678 9.69307 18.3372 9.21242 18.3049 9.2146C18.2725 9.21678 17.4471 9.69561 16.4707 10.2786ZM3.30826 12.4415C3.02371 12.726 2.48891 14.8453 2.31552 16.3754C2.19494 17.4399 2.2656 19.7165 2.45151 20.7584C3.35875 25.8413 6.53968 30.1547 11.0391 32.4033C11.4838 32.6256 12.0205 32.8781 12.2316 32.9644L12.6157 33.1215L12.3943 33.2561C12.1645 33.3958 12.0234 33.5937 12.0234 33.7763C12.0234 33.966 12.3355 34.2595 12.5372 34.2595C12.7931 34.2595 14.2727 33.4064 14.3638 33.2063C14.4188 33.0858 14.3813 32.8409 14.2023 32.1515C14.0742 31.6576 13.9264 31.1671 13.874 31.0613C13.6959 30.7019 13.1086 30.725 12.978 31.0965C12.9302 31.2323 12.9421 31.4208 13.0187 31.7408L13.1269 32.1931L12.8388 32.0837C12.6804 32.0236 12.1394 31.776 11.6367 31.5335C7.7788 29.6725 4.85092 26.0655 3.76157 21.8318C3.40108 20.4306 3.29132 19.5541 3.2904 18.07C3.28942 16.3634 3.53453 14.7699 4.0109 13.3853C4.19076 12.8624 4.18485 12.6444 3.98572 12.4573C3.78372 12.2676 3.48904 12.2607 3.30826 12.4415ZM32.6803 12.3923C32.6186 12.4407 32.3436 12.7765 32.0692 13.1385C31.5068 13.8807 31.45 14.098 31.7556 14.3383C32.0326 14.5562 32.2531 14.524 32.5266 14.2253C32.6571 14.083 32.7762 13.9802 32.7913 13.9968C32.8217 14.0299 33.0646 15.1133 33.1923 15.7849C33.313 16.4194 33.359 18.8522 33.2656 19.6613C32.7455 24.1691 30.3281 28.1448 26.5984 30.6264C25.7726 31.1758 24.3445 31.89 23.3789 32.2365C22.385 32.5932 22.3663 32.6028 22.2754 32.8023C22.1639 33.047 22.2744 33.3372 22.5247 33.4572C22.7041 33.5431 22.7988 33.5254 23.5777 33.2594C28.2336 31.6693 32.0241 27.8225 33.5717 23.1171C34.4594 20.4181 34.6239 17.6607 34.0641 14.8632C33.9705 14.3949 33.8719 13.9548 33.8452 13.885C33.8038 13.7771 33.8217 13.7663 33.9666 13.8122C34.5658 14.0016 34.875 13.8631 34.875 13.4052C34.875 13.0917 34.7685 13.0103 33.8572 12.6281C33.0424 12.2863 32.8618 12.2501 32.6803 12.3923ZM12.3574 17.6923L10.5469 18.7812L10.5506 20.9745L10.5542 23.1677L12.0385 24.0466C12.8548 24.53 13.6695 25.0115 13.8489 25.1165L14.175 25.3076L15.9644 24.234L17.7539 23.1604L17.7725 20.9714L17.791 18.7824L16.1201 17.7811C15.2011 17.2304 14.3859 16.7401 14.3086 16.6916C14.1833 16.613 13.9707 16.722 12.3574 17.6923ZM20.6719 17.678L18.8789 18.7476L18.8617 20.9576L18.8445 23.1677L20.3325 24.0466C21.151 24.53 21.9655 25.0105 22.1427 25.1144L22.4648 25.3033L24.2578 24.2335L26.0508 23.1638L26.0693 20.9707L26.0879 18.7777L24.3467 17.7453C23.389 17.1775 22.5738 16.6894 22.5351 16.6607C22.4965 16.6319 21.658 17.0897 20.6719 17.678Z" fill="#040404"/>
</svg>
