<svg width="36" height="36" viewBox="0 0 36 36" fill="none" xmlns="http://www.w3.org/2000/svg">
<path fill-rule="evenodd" clip-rule="evenodd" d="M14.8359 1.20222C14.0808 1.29932 13.0174 1.54591 12.2343 1.80543C11.3107 2.11157 9.70187 2.89801 9.38188 3.1998C9.0815 3.48301 9.05661 3.79021 9.31318 4.04671C9.54542 4.27895 9.83321 4.2677 10.2521 4.01001C10.8187 3.66133 12.0194 3.11373 12.715 2.88683C14.221 2.39542 15.9284 2.19074 17.454 2.31871C19.178 2.46334 20.6082 2.87158 22.1286 3.6531C23.2447 4.22671 24.1427 4.87977 25.0344 5.7662C26.839 7.55994 27.9089 9.58748 28.3837 12.1129C28.4785 12.6172 28.5067 13.1628 28.5098 14.5553C28.5137 16.2942 28.5189 16.3596 28.6832 16.7259C28.7765 16.9336 29.4335 17.9303 30.1434 18.9407L31.4341 20.7779L30.1247 20.8131C28.5929 20.8542 28.5992 20.8511 28.5176 21.6001C28.3442 23.1897 27.7311 25.3526 27.0229 26.8727C26.7512 27.4561 26.747 27.6617 27.0017 27.9164C27.1944 28.1091 27.5673 28.0989 27.7582 27.8957C28.2509 27.3712 29.2213 24.5282 29.5276 22.7115C29.6743 21.8421 29.5222 21.9381 30.7526 21.9381C31.7549 21.9381 31.8471 21.927 32.0631 21.7799C32.191 21.6928 32.3562 21.5398 32.4302 21.4398C32.58 21.2376 32.6651 20.7717 32.5998 20.5116C32.5764 20.4185 31.9685 19.5069 31.2489 18.4859C30.5292 17.4649 29.8834 16.5187 29.8136 16.3833C29.6479 16.0616 29.6315 15.8285 29.6972 14.731C29.8434 12.2906 29.2168 9.75475 27.9183 7.5314C27.2494 6.38608 25.9236 4.87063 24.8203 3.99011C23.0116 2.5468 20.7499 1.5741 18.4128 1.23421C17.6079 1.11721 15.6341 1.09949 14.8359 1.20222ZM6.96932 5.17839C6.00625 6.17085 5.39741 7.03028 4.75686 8.30167C4.20674 9.39362 3.82607 10.4766 3.57217 11.6725C3.4366 12.3109 3.41502 12.6295 3.41277 14.0279C3.41045 15.4442 3.43021 15.7443 3.57196 16.444C3.93259 18.2246 4.11196 18.6444 6.44619 23.174C7.4641 25.1492 8.37437 26.9931 8.46908 27.2714C8.84736 28.3838 8.87239 29.5483 8.54228 30.6873C8.34111 31.3815 8.22601 31.6224 7.40778 33.0612C6.76049 34.1995 6.69573 34.4529 6.98296 34.7227C7.1806 34.9083 7.52275 34.9221 7.7244 34.7525C7.8703 34.6298 8.75532 33.1078 9.23703 32.1512C9.77134 31.0902 10.0493 29.5948 9.92089 28.4719C9.76346 27.0961 9.63029 26.7707 7.67898 22.9967C5.18851 18.1797 5.00626 17.7541 4.69991 16.0396C4.51035 14.9788 4.49509 13.2089 4.66707 12.235C5.10927 9.73127 6.06214 7.84745 7.87206 5.89874C8.37585 5.35628 8.50775 5.17101 8.50775 5.00584C8.50775 4.71433 8.3106 4.50416 7.98885 4.45262C7.71716 4.4091 7.71308 4.41198 6.96932 5.17839ZM15.6796 5.35241C14.84 5.97925 13.9665 6.98205 13.5703 7.77405L13.3945 8.1254L12.832 7.95095C12.3186 7.79169 12.153 7.77623 10.9335 7.77348C8.87415 7.76891 8.89215 7.75056 8.89827 9.84433C8.90164 11.0271 8.91796 11.1967 9.07778 11.714L9.25363 12.2828L8.8115 12.5121C7.64882 13.1149 6.18744 14.6052 6.18744 15.1881C6.18744 15.8013 7.72974 17.3358 8.96478 17.9514C9.97588 18.4553 10.6518 18.5968 11.797 18.5446C13.3484 18.4739 14.5809 17.8981 15.8711 16.6416L16.3087 16.2153L16.8203 16.7064C17.8636 17.7077 18.8609 18.2531 20.0897 18.4946C20.7356 18.6215 22.06 18.5499 22.6757 18.3548C23.7438 18.0163 24.7373 17.3842 25.5419 16.5313C26.1565 15.8797 26.4374 15.4584 26.4374 15.1881C26.4374 14.6052 24.9761 13.1149 23.8134 12.5121L23.3713 12.2828L23.5332 11.7239C23.744 10.9959 23.83 10.0219 23.7583 9.1727C23.6539 7.93527 23.5745 7.84935 22.4369 7.74233C21.5611 7.65993 20.5384 7.74669 19.7733 7.96832L19.2156 8.12983L19.0472 7.77447C18.6759 6.9909 17.66 5.83834 16.8486 5.28006C16.4083 4.97715 16.1618 4.99234 15.6796 5.35241ZM15.6298 6.98373C13.9432 8.74056 13.6348 10.8319 14.7784 12.757C15.1073 13.3105 16.1291 14.4146 16.3124 14.4146C16.4839 14.4146 17.4962 13.338 17.8085 12.8234C18.7391 11.2906 18.7526 9.58199 17.8464 8.0567C17.5176 7.50313 16.4958 6.39901 16.3124 6.39901C16.2458 6.39901 15.9386 6.66212 15.6298 6.98373ZM10.325 8.90699L10.0681 8.93793L10.0214 9.40874C9.88391 10.7963 10.3856 12.3254 11.2947 13.2892C12.0351 14.0743 13.0983 14.5701 14.2878 14.6851L14.8371 14.7382L14.6025 14.4885C13.8372 13.6739 13.2789 12.632 13.0369 11.567C12.9568 11.2146 12.9318 10.8186 12.9488 10.1734C12.9694 9.39461 12.9568 9.26319 12.8571 9.2073C12.5064 9.01105 10.9717 8.82894 10.325 8.90699ZM20.904 8.92991C20.6643 8.96366 20.2846 9.04276 20.0602 9.10569L19.6523 9.22016V10.3584C19.6523 11.4629 19.6455 11.5162 19.4224 12.1551C19.1108 13.0477 18.6583 13.8069 18.0442 14.4674L17.8318 14.6959H18.1858C18.6853 14.6959 19.5605 14.4595 20.1796 14.1574C20.5675 13.9682 20.8473 13.7588 21.2374 13.3664C22.177 12.4209 22.5758 11.393 22.5948 9.86774C22.6006 9.39728 22.5857 8.99263 22.5616 8.96851C22.4854 8.8923 21.3579 8.86607 20.904 8.92991ZM9.21608 13.6222C8.71757 13.9147 7.52338 15.0039 7.52338 15.1661C7.52338 15.316 8.26412 16.0701 8.75947 16.4245C9.68647 17.0876 10.5152 17.3728 11.519 17.3744C12.215 17.3756 12.6227 17.299 13.2253 17.0542C13.6898 16.8655 14.502 16.3485 14.7503 16.0836L14.9108 15.9123L14.2933 15.8703C12.6546 15.7589 11.1748 15.0253 10.1882 13.8353C9.98748 13.5932 9.78828 13.3865 9.7456 13.3761C9.70285 13.3656 9.46457 13.4764 9.21608 13.6222ZM22.5054 13.7476C21.6379 14.8966 19.9481 15.754 18.3239 15.8693L17.6913 15.9142L18.0029 16.1907C19.5457 17.5599 21.7055 17.7719 23.4597 16.7263C23.9544 16.4314 25.1015 15.3568 25.1015 15.1881C25.1015 14.9018 23.2272 13.36 22.8791 13.36C22.8346 13.36 22.6664 13.5344 22.5054 13.7476ZM25.9363 28.8864C25.8733 28.9127 25.5955 29.177 25.319 29.4738C24.5493 30.2999 24.4546 30.3325 22.6982 30.3753C21.1076 30.414 21.0615 30.4261 20.7113 30.8947C20.5757 31.0762 20.565 31.1991 20.5453 32.8061L20.5242 34.5235L20.7003 34.6995C20.809 34.8081 20.9562 34.8756 21.0848 34.8756C21.6748 34.8756 21.7265 34.7204 21.7265 32.9506V31.5109L23.1503 31.4882C24.5354 31.4661 24.5847 31.4602 24.9609 31.2744C25.687 30.9157 26.7187 29.8513 26.7187 29.4608C26.7187 29.1663 26.6536 29.046 26.4324 28.9316C26.2183 28.8208 26.1156 28.8115 25.9363 28.8864Z" fill="#040404"/>
</svg>
