<svg fill="#000" version="1.1" id="Capa_1" xmlns="http://www.w3.org/2000/svg" xmlns:xlink="http://www.w3.org/1999/xlink" width="800px" height="800px" viewBox="0 0 298.942 298.942" xml:space="preserve">
<g>
	<path d="M196.303,247.697c41.781,0,75.78-33.987,75.78-75.769c0-33.398-21.924-62.138-52.458-72.027&#10;&#9;&#9;c2.606-7.74,3.964-15.871,3.964-24.133c0-41.775-34-75.768-75.772-75.768c-41.791,0-75.769,33.993-75.769,75.768&#10;&#9;&#9;c0,8.608,1.459,17.081,4.288,25.1c-29.153,10.743-49.477,38.731-49.477,71.061c0,41.781,33.981,75.769,75.769,75.769&#10;&#9;&#9;c11.781,0,23.242-2.822,33.615-7.98v32.78H64.608c-7.305,0-13.226,5.927-13.226,13.223c0,7.302,5.921,13.223,13.226,13.223h169.729&#10;&#9;&#9;c7.302,0,13.223-5.927,13.223-13.223c0-7.302-5.921-13.223-13.223-13.223H162.7v-32.78&#10;&#9;&#9;C173.046,244.875,184.509,247.697,196.303,247.697z"/>
</g>
</svg>