<svg width="42" height="42" viewBox="0 0 42 42" fill="none" xmlns="http://www.w3.org/2000/svg">
<path d="M21 40.998C32.046 40.998 41 32.044 41 20.998C41 9.95205 32.046 0.998047 21 0.998047C9.954 0.998047 1 9.95205 1 20.998C1 23.756 1.56 26.384 2.568 28.774C3.126 30.094 3.404 30.754 3.44 31.254C3.474 31.754 3.326 32.302 3.032 33.4L1 40.998L8.598 38.966C9.696 38.672 10.244 38.526 10.744 38.558C11.244 38.594 11.904 38.872 13.224 39.43C15.6853 40.4667 18.3293 40.9998 21 40.998Z" stroke="#D81680" stroke-width="2" stroke-linecap="round" stroke-linejoin="round"/>
<path d="M14.1763 21.752L15.9183 19.59C16.6523 18.678 17.5583 17.83 17.6323 16.614C17.6483 16.308 17.4323 14.932 17.0023 12.178C16.8323 11.096 15.8203 10.998 14.9463 10.998C13.8063 10.998 13.2363 10.998 12.6703 11.258C11.9543 11.584 11.2203 12.502 11.0583 13.272C10.9303 13.882 11.0263 14.302 11.2163 15.142C12.0203 18.708 13.9103 22.23 16.8383 25.16C19.7683 28.088 23.2903 29.978 26.8583 30.782C27.6983 30.972 28.1163 31.068 28.7263 30.94C29.4963 30.78 30.4143 30.044 30.7423 29.328C31.0003 28.762 31.0003 28.192 31.0003 27.052C31.0003 26.176 30.9023 25.166 29.8203 24.996C27.0663 24.564 25.6903 24.35 25.3843 24.366C24.1703 24.438 23.3203 25.346 22.4083 26.08L20.2463 27.82" stroke="#D81680" stroke-width="2" stroke-linecap="round" stroke-linejoin="round"/>
</svg>
